<?xml version="1.0" encoding="UTF-8"?>
<svg viewBox="0 0 1500 1500" xmlns="http://www.w3.org/2000/svg">
 <path d="m943.14 745.26c-245.49-19.703-250.44 258.66-396.74 258.66-125.34 0-111.47-134.67-104.92-173.26 14.512-1.083 33.827-6.355 57.562-21.226 63.431-39.755 25.048-117.14 25.048-117.14-1.24 27.09-37.199 29.557-37.199 29.557-67.217 3.131-74.824 55.76-77.08 83.752-8.821-20.858-29.93-59.026-64.962-55.798-47.332 4.358-37.575 23.262-88.322-2.911 0 0-7.84 75.536 70.725 94.724 20.419 4.9879 36.501 4.7809 49.008 2.098-4.705 403.64 382.88 495.8 621.45 394.22 274.79-116.99 190.92-472.97-54.562-492.68z" fill="#bfbfbf"/>
 <path d="m940.47 721.95c7.7045-16.15 62.254-127.86 162.09-102.09 220.57 56.928 181.56-233.01 7.6792-188.22-136.22 35.096-177.21 280.83-180.54 302.91 0 0-0.38098 2.9703 0.80798 3.5965 4.6924 2.4411 9.9683-16.192 9.9683-16.192z" fill="#d1e8ff"/>
 <path d="m923.58 734.69s30.624-664.66-317.01-522.52c0 0-160.63 74.432-59.987 240.28 39.433 64.971 130.08 64.865 197.41 52.799 0 0 57.588-12.524 96.259 33.602 38.68 46.126 67.789 184.63 73.052 194.89 5.923 11.576 10.277 0.95203 10.277 0.95203z" fill="#335475"/>
 <path d="m940.39 555.73c9.609-40.452-39.618-371.42 150.78-321.84 96.309 25.077 71.211 175.08-27.129 178.48-92.35 3.1859-99.873 103.59-114.46 142.44 0 0-1.866 6.431-5.526 6.092 0 0-4.8099-0.34198-3.6599-5.17z" fill="#b9ead8"/>
 <path d="m925.84 980.61c11.178 15.392 27.954 19.589 37.461 9.3632 9.4944-10.273 8.1149-31.081-3.0718-46.486-11.208-15.438-27.979-19.615-37.465-9.3715-9.4858 10.256-8.1318 31.055 3.0759 46.494z"/>
 <path d="m1101.2 1164.5s-131.8 46.917-166.4-84.179c0 0-2.3905-4.3834 0.66834-6.6636 3.8251-2.8431 9.6215 0.50305 9.6215 0.50305 30.302 127.76 153.18 79.525 153.18 79.525s5.8684 1.3796 6.778 3.6221c0.90979 2.2379-0.080322 6.7189-3.8501 7.1925z"/>
</svg>
